<svg width="280" height="280" viewBox="0 0 280 280" fill="none" xmlns="http://www.w3.org/2000/svg">
<!-- <rect y="0.000366211" width="280" height="280" rx="32" fill="#C6BEAC"/> -->
<g clip-path="url(#clip0_502_550)">
<path d="M47.7446 178.546C53.1907 134.006 75.8919 119.72 96.2187 107.062C116.975 94.1308 134.927 82.8048 132.768 40.2507C123.3 40.9274 113.978 42.9571 105.085 46.2781C105.989 80.0504 89.9901 90.0663 74.4655 99.7379C58.069 109.95 42.5802 119.6 41.6099 157.678C42.9066 164.926 44.9679 171.924 47.7446 178.546Z" fill="white"/>
<path d="M69.7345 92.1455C84.2039 83.1268 95.9055 75.749 96.1693 50.1191C69.8329 63.0279 49.98 87.1778 42.875 116.278C50.1678 104.343 60.3044 98.0164 69.7345 92.1455ZM72.3771 213.592C75.9006 166.124 96.7282 149.558 116.925 133.519C138.866 116.099 159.6 99.5903 158.433 41.6771C152.91 40.6499 147.31 40.089 141.692 40.0004C144.008 87.6697 122.166 101.433 100.945 114.65C79.4464 128.042 57.2594 141.943 55.5513 193.44C60.2563 200.863 65.913 207.638 72.3771 213.592ZM179.471 161.403C199.512 145.319 218.417 130.009 217.406 76.6388C212.003 70.0626 205.789 64.1971 198.912 59.1826C198.631 117.489 175.965 135.715 153.998 153.341C133.322 169.934 113.804 185.633 112.374 236.128C120.619 238.498 129.289 239.844 138.249 240.005C140.606 192.729 160.329 176.771 179.471 161.403ZM213.06 182.262C198.707 191.008 186.258 198.676 184.81 229.43C212.331 215.6 232.618 189.452 238.395 158.246C231.947 170.739 222.168 176.713 213.06 182.262Z" fill="white"/>
<path d="M208.41 174.629C223.782 165.257 238.31 156.413 236.539 115.289L237 115.271C234.658 106.114 231.021 97.3371 226.197 89.2078C224.082 136.917 204.31 152.943 185.078 168.378C166.777 183.053 149.513 197.035 147.228 239.754C156.983 239.064 166.584 236.94 175.72 233.45C176.265 194.218 193.337 183.813 208.41 174.629ZM148.409 146.365C170.385 128.735 191.15 112.034 189.934 53.334C182.853 49.2414 175.295 46.0366 167.43 43.7921C168.069 104.334 144.907 122.721 122.488 140.521C102.072 156.73 82.8045 172.129 80.9668 220.657C87.9353 225.776 95.5391 229.968 103.587 233.128C105.796 180.701 127.429 163.2 148.409 146.365Z" fill="white"/>
</g>
<defs>
<clipPath id="clip0_502_550">
<rect width="200" height="200" fill="white" transform="translate(40 40.0004)"/>
</clipPath>
</defs>
</svg>
